<?xml version="1.0" encoding="utf-8"?>
<!-- Generator: Adobe Illustrator 23.0.2, SVG Export Plug-In . SVG Version: 6.00 Build 0)  -->
<svg version="1.1" id="レイヤー_1" xmlns="http://www.w3.org/2000/svg" xmlns:xlink="http://www.w3.org/1999/xlink" x="0px"
	 y="0px" viewBox="0 0 510.2 510.2" style="enable-background:new 0 0 510.2 510.2;" xml:space="preserve">
<style type="text/css">
	.st0{fill:#040000;stroke:#040000;stroke-width:0.75;stroke-miterlimit:10;}
</style>
<path class="st0" d="M149.4,153.1c39.6-24.3,44.7-20.8,49.7-19c-25.9,0.8-59.2,34.3-56.9,55.3c5-5.3,13.9-6.3,13.9-6.3
	c-18.8,17.1-21.2,41.1-20.4,64c0.8,23.1-2.1,46.8-2.1,46.9c15.9-2.3,38-20.7,38.1-20.5c-0.1,0-6.6,14.2-24.5,21.9
	c-13.4,5.5-7.4,59.2,0.2,67.8c2.7-13.8,17.4-19.6,17.4-19.6c0,0-9.9,11.3-12.6,20.8c-3.1,9.5,3.9,46.7,12.4,60.7
	c0.9-12.4,18.1-29.6,29.9-30.8c-27.3,16.2-32.4,33.5-15.6,60.2c4.5,7.2,15.2,21.9,15.2,21.8c0,0,7.6-2.1,12.2-9.3
	c-0.3,2.2-4.2,11.6-8.2,14.5c0,0,9.9,12.2,22.9,22.8c13,10.6,23.9,3.8,23.7,3.6c-4.9-9.8-9.2-19-13.5-28.7
	c-0.1,0.1,12.6,22.1,17.3,25.5c20.8-14.9,18.9-16.6,25.2-29.2c2.5-4,6.8-27.7,2.5-29.8c-4.5-2-25.9-21-21.2-26.4
	c1,9.9,24.8,22.9,28.3,30c9.8-17.6,4.6-68.3,6.6-74.8c1.3-6.6-10.5-19.4-10.4-19.4c4.3,0.4,11,7.3,11,12c1.8-9.7,12.4-56.8-1.6-82.4
	c6.4,1.4,12.4,12.9,12.5,12.9c5.9-12.2-14.8-26.7-21.6-33.1c-9.4-8.3-12-23.8-12-23.8c0,0,4.8,11,13.7,19.2
	c6.6,6.4,20.6,18.9,21.6,24.3c1.4-3.8,14.6-23.3,11.8-37.3c-1.5-6.2-18.4-19.2-13.2-20.2c-0.3,3.4,16.6,16.1,16.7,15.9
	c5-8.7,1.7-19.3-8.3-30.5c-20.4-20.7-19.1-33.3-16.8-34.4c-3.9,13.8,29.8,42,31.7,47.8c9.4-5.3,5.8-18.1,2.7-33.7
	c-3.5-15.3-6-33.4-7.4-38.9c8.8,14.3,14.7,44.3,13.8,47.9c12.2-9.7,15-26.8,19.5-47.2c0.5-1.3,0.9-2.8,1.3-4.5
	c0.3-1.5,0.6-3.1,0.9-4.8c0.5-2,1.1-4.1,1.6-6.2c6.6-26,14-50.8,13.8-50.7c-0.2,0.1,2.2-2.3,3.7-6.8c3.1-4,5.8-6.9,7.4-8.4
	c0.5-0.5,0.9-0.9,1.4-1.3c-4.7,6.7-16.5,25.8-17.7,47.1c-0.1,11.1-1,20.2-2.5,27.4c-0.3,1.5-0.7,2.9-1.1,4.1c-1.2,2.5-2.3,4-2.8,4.6
	c0.4-0.1,1-0.7,1.7-1.6c-1,2.7-1.9,4.4-2.4,5c1-0.4,2.9-3.3,4.6-8.4c0.8-1.5,1.5-3.2,2.2-5.4c2.4-6.7,3.9-16.8,5.4-27.9
	c1.6-11,5.9-21.1,10.5-29.1c-0.7,3.1-1.3,6.5-1.6,9.9c-1.3,3-3,4.6-3.5,5.1c0.6-0.1,2.1-1.3,3.4-3.6c-0.2,2.1-0.3,4.3-0.2,6.5
	c0.4,9,0,16.6-1.2,22.7c-1.1,6-3.2,9.3-3.9,10.3c0.9-0.5,3.3-3.6,4.7-9.6c1.4-6,2.1-13.9,1.7-22.9c0-4.1,0.3-8.2,1-12
	c0.5-1.8,0.9-3.7,1.2-5.8c0.4-1.8,0.9-3.6,1.4-5.3c1.6-2.5,3.2-4.7,4.6-6.6c-0.2,1.3-0.3,2.6-0.3,4c0.2,3.9-0.1,7.3-1,9.8
	c-0.8,2.5-2,3.9-2.4,4.3c0.5-0.2,1.9-1.4,2.8-4c1-2.5,1.3-6,1.2-9.9c0-1.9,0.2-3.6,0.5-5.3c0-0.1,0.1-0.1,0.1-0.2
	c0.4,2.1,0.8,4.3,1,6.7c0.3,2.9,0.7,5.6,1.2,8c-0.6,2.5-1.1,5-1.4,7.7c-0.6,7.7-1.9,14-3.6,19.1c-1.7,5-4,7.6-4.8,8.4
	c0.9-0.3,3.5-2.7,5.4-7.7c2-5,3.5-11.5,4.1-19.1c0.2-2,0.6-4,1-5.9c0.2,0.6,0.3,1.2,0.5,1.7c1,3,2.1,4.4,2.5,4.5
	c-0.3-0.4-1.4-2-2.3-5c-0.2-0.6-0.4-1.2-0.5-1.9c1.2-5.1,3-9.9,4.8-13.9c-0.1,3,0,6.2,0.5,9.5c1,5,1.3,9.4,0.8,12.9
	c-0.5,3.5-1.6,5.8-2,6.4c0.6-0.4,1.9-2.6,2.5-6c0.7-3.5,0.4-8.1-0.5-13c-0.6-4.1-0.6-8.1-0.4-11.7c0.7-1.4,1.4-2.7,2-3.9
	c0.2,0.4,0.4,0.7,0.6,1.1c0.2,2.3,0.6,4.8,1.3,7.2c1.2,3.8,1.8,7.2,1.7,10c-0.1,2.8-0.8,4.6-1.1,5.1c0.4-0.3,1.4-2.1,1.5-4.9
	c0.2-2.8-0.3-6.4-1.5-10.1c-0.5-2-0.9-3.9-1.1-5.8c1,2,2,4.2,3,6.4c1.7,4.6,3.6,8.5,5.3,11.1c1.7,2.6,3.1,3.7,3.5,3.7
	c-0.4-0.3-1.8-1.5-3.4-4.2c-1.7-2.7-3.4-6.5-5.1-11.1c-1-2.5-2.1-4.9-3.3-7.1c-0.1-1.1-0.2-2.2-0.2-3.3c1.2-2.1,2.3-3.7,3-4.7
	c1.5-2,3-3.6,4.3-4.8c0.2,0.1,0.5,0.1,0.6,0.1l0-0.6c0.3-0.2,0.5-0.5,0.8-0.7c16.9-2.1,30.8-2.4,39.9-2.5c28.3,0.6,25.9-11,2.7-10.5
	c-10.1,0.5-26.5,1.2-46.7,4.4c0.9-2.3,1.9-5.2,2.5-8.3c0.5-3.2,1.3-5.9,2.4-7.9c1.1-2,2.3-3,2.7-3.3c-0.4,0.1-1.8,1-2.9,2.9
	c-1.2,1.9-2.1,4.8-2.5,7.9c-0.7,3.3-1.7,6.4-2.7,8.7c-0.2,0-0.5,0.1-0.7,0.1c-0.6-0.2-1.2-0.4-1.8-0.7c-0.2-2.8-0.6-6.8-1.9-11
	c-1.1-3.1-1.8-5.8-1.8-8c0-2.2,0.6-3.5,0.8-3.9c-0.4,0.2-1.1,1.5-1.2,3.7c-0.1,2.2,0.5,5,1.6,8.1c1.3,4.1,1.7,8.1,1.8,10.8
	c-0.9-0.4-1.9-0.9-2.9-1.4c-0.3-1.1-0.6-2.2-0.8-3.3c-0.3-2.6-0.9-4.9-2-6.7c-1.1-1.8-2.5-2.7-2.9-2.9c0.4,0.3,1.7,1.3,2.7,3.1
	c1,1.8,1.6,4,1.8,6.6c0.2,1,0.4,1.9,0.6,2.8c-0.2-0.1-0.4-0.2-0.6-0.3c-1.2-1.1-2.9-2.9-4.9-5.2c-0.1-0.2-0.1-0.3-0.2-0.5
	c-1.3-3-2.2-5.8-2.4-8.1c-0.2-2.3,0.3-3.8,0.4-4.2c-0.3,0.3-0.9,1.8-0.8,4.1c0.1,2.2,0.9,5,2.1,7.9c-2.6-3-5.4-6.8-7.7-11
	c-2.1-4.4-4.7-8.1-7.6-10.6c-2.9-2.4-5.8-3.2-6.6-3.1c0.9,0.2,3.6,1.2,6.4,3.7c2.8,2.5,5.2,6.2,7.3,10.6c2.7,5,6.2,9.4,9.1,12.7
	c0.1,0.4,0.2,0.8,0.4,1.2c-3.4-2.1-9.1-5.8-15.7-10.7c-0.1-0.4-0.2-0.7-0.2-0.9c-0.1,0.1-0.1,0.4,0,0.7c-5.9-4.4-12.5-9.7-18.5-15.7
	c-6.4-7-13.9-12.5-21.4-15.4c-7.4-2.8-13.9-2.5-15.6-2c2,0,8.3,0.1,15.4,3.1c7.2,3.1,14.3,8.5,20.7,15.6
	c6.8,6.6,14.1,12.5,20.5,17.2c0.1,0.1,0.1,0.2,0.1,0.3c1.1,1.9,3.2,4,5.8,6.1c2,1.7,3.6,3.6,5,5.3c-0.8-0.3-1.6-0.5-2.5-0.9
	c-1-0.4-2.3-0.9-4-1.6c-0.6-0.5-1.3-1-2-1.3c-1.4-0.8-2.8-1-3.5-1c-1.7-0.7-3.6-1.5-5.6-2.4c-5.9-4.8-12.4-10.6-18.4-17.1
	c-5.9-7.2-12.9-13.3-20.1-16.2c-7-3.1-13.5-3.2-15.2-2.7c1.9,0,8.1,0.5,14.9,3.8c6.9,3.1,13.4,9,19.4,16.3
	c4.6,4.9,9.5,9.5,14.1,13.5c-3.9-1.7-8.2-3.7-12.6-5.8c-1.4-1.5-2.8-3.1-4.2-4.7c-4.8-6.7-10.6-12.1-17.1-15
	c-6.3-3.1-12.4-3.6-14.1-3.1c1.8,0,7.7,0.8,13.7,4c6.1,3.2,11.6,8.3,16.4,15.1c0.6,0.7,1.1,1.3,1.7,2c-5.7-2.8-11.6-5.8-17.5-9
	c-10.9-6.9-22.8-11-33.6-11.8c-10.7-0.9-19,1.8-20.8,3.2c2.4-0.9,10.6-3,21-1.8c10.6,1.2,21.8,5.3,32.8,12.2c7.4,4,14.7,7.7,21.6,11
	c0.9,0.9,1.8,1.8,2.7,2.7c-2.1-0.8-4.2-1.6-6.4-2.5c-5.8-3.6-12.8-6.7-20.9-8.9c-3.2-1.5-6.5-2.9-9.8-4c-5.3-3.6-10.8-6.3-16.3-7.5
	c-7.8-1.8-14.5-0.8-16.1,0c2-0.3,8.5-0.9,16,1.2c3.8,1,7.6,2.7,11.4,4.9c-5.3-1.4-10.6-2.1-15.7-2c-8.4-0.2-15.3,2-18.8,3.5
	c-4.2-0.3-8.4-0.2-12.4,0.3c-13.2,1.3-23.1,6.9-25.2,8.8c2.9-1.5,12.8-6.4,25.6-7.2c2-0.2,4.1-0.2,6.2-0.2
	c-9.6,1.7-19.7,4.5-29.9,8.5c-3.2,0.5-6.3,1.2-9.3,2.1c-14.8,4-24.8,12.2-26.5,14.1c2.2-1.9,12.6-9.7,27.2-13.3
	c1.4-0.4,2.8-0.7,4.2-1c-19,8.2-37.9,20.6-53.9,37.8c7.2,4.3,34.1-2.8,38.9,1.4C188.9,69.9,152.4,133.2,149.4,153.1z M376.3,53.8
	c0.4,0.4,0.9,0.7,1.2,1c-1.4-0.2-2.8-0.5-4.3-0.7c-1.4-0.5-3.1-1.1-4.8-1.9c-0.3-0.5-0.7-0.9-1-1.4c3.4,1.1,6.1,2,7.8,2.6
	C375.6,53.6,376,53.7,376.3,53.8z M375.9,69.2c0.2-0.1,0.4-0.3,0.5-0.4c-0.2,0.2-0.3,0.3-0.5,0.5C375.9,69.3,375.9,69.3,375.9,69.2z
	 M396.5,62.1L396.5,62.1c0,0.1-0.1,0.2-0.2,0.3c0,0-0.1-0.1-0.1-0.1C396.3,62.2,396.4,62.1,396.5,62.1z M392,52.2
	c-0.1,0-0.2,0-0.3,0.1l-0.1-0.2C391.8,52.1,391.9,52.2,392,52.2z M388.9,51.1c0,0-0.1-0.1-0.1-0.1C388.8,51,388.9,51,388.9,51.1
	C388.9,51,388.9,51.1,388.9,51.1z M388.4,51.3c-0.3,0.2-0.6,0.4-1,0.6c-1.2-0.8-2.8-1.9-4.8-3.3c1.2,0.4,2.2,0.8,2.9,1
	c0.7,0.3,1.3,0.5,2,0.8C387.9,50.8,388.2,51.1,388.4,51.3z M384.8,52.5c-0.1,0-0.2,0-0.4-0.1c0-0.1-0.1-0.2-0.1-0.3
	C384.5,52.3,384.7,52.4,384.8,52.5z M376.2,74.5c0.7-0.9,1.3-1.7,1.8-2.3c0.5-0.6,1-1.1,1.5-1.6c-0.9,1-2,2.4-3.4,4.1
	C376.1,74.7,376.2,74.6,376.2,74.5z M390.4,67.4c0.2-0.2,0.5-0.4,0.7-0.7c-0.3,1.1-0.7,2.3-1,3.6c-0.1,0.1-0.2,0.2-0.2,0.3
	c-0.1-0.5-0.2-1-0.3-1.5C389.8,68.5,390.1,67.9,390.4,67.4z M392,66.4c0.4,0.1,0.7,0.1,1,0.2c0,0-0.1,0.1-0.1,0.1
	c-0.5,0.6-1.1,1.3-1.8,2.2C391.5,67.9,391.7,67.1,392,66.4z M394.6,64.5L394.6,64.5l0.2-0.5l0.5-1c0.1-0.1,0.3-0.2,0.4-0.3
	c0.1,0.1,0.1,0.2,0.2,0.2C395.5,63.4,395.1,64,394.6,64.5z M399.2,64.6c-0.1,0.5-0.2,1.2-0.3,1.9c-0.2-0.4-0.4-0.7-0.6-1
	C398.6,65.1,398.9,64.8,399.2,64.6z M400.4,64.3c0.2,0.1,0.5,0.3,0.7,0.4c0,0.7,0,1.5,0,2.4c-0.3,0.5-0.6,1.1-0.9,1.6
	c-0.2-0.3-0.4-0.7-0.6-1C399.9,66.3,400.2,65.2,400.4,64.3z M403.8,62.4l0.4-1.5c0.3-0.2,0.6-0.4,0.8-0.6c-0.4,0.7-0.9,1.5-1.3,2.2
	L403.8,62.4z M397.5,49.9c-0.6-0.1-1.2-0.2-1.8-0.4c-0.1-0.6-0.2-1.2-0.4-1.9c0.9,0.6,1.7,1.3,2.5,1.8
	C397.8,49.6,397.6,49.8,397.5,49.9z M383.7,51.6l-0.2,0.6c-2.2-0.5-4.5-1-7.1-1.7c-0.6-0.2-1.5-0.4-2.4-0.7c-2.7-2.1-6-4.7-9.4-7.6
	c4.8,1.8,9.2,3.3,12.7,4.5C379.7,48.7,381.9,50.3,383.7,51.6z M370,114.5c-1.2,9.8-2.4,18.3-4.1,24.9c1-6,1.6-13,1.8-20.8
	c1.3-21,13.1-39.9,18.3-46.3c-0.9,2.2-1.7,4.6-2.4,7.3C378.1,88.4,372,100.6,370,114.5z M389.2,69.9c0.1,0.4,0.2,0.8,0.3,1.2
	c-0.6,0.8-1.3,1.8-2,2.8C388,72.4,388.6,71.1,389.2,69.9z M392.5,87.9c-0.4-2.3-0.8-4.8-1.1-7.6c-0.3-2.3-0.6-4.5-1-6.6
	c1.8-2.3,3.3-4,4.4-5c1-1.1,2-2,3-2.9c0.3,0.5,0.6,0.9,0.9,1.4c-0.3,1.6-0.5,3.6-0.7,5.7C396.1,77.1,394,82.2,392.5,87.9z
	 M399.2,70.7c0.1-0.7,0.2-1.4,0.3-2.1c0.1,0.2,0.3,0.5,0.4,0.7C399.7,69.7,399.5,70.2,399.2,70.7z M401.3,70.7
	c-0.1-0.1-0.1-0.2-0.2-0.4c0-0.1,0.1-0.2,0.1-0.3C401.3,70.3,401.3,70.5,401.3,70.7z M401.9,65.1c0.1,0,0.2,0.1,0.3,0.2
	c-0.1,0.2-0.2,0.4-0.3,0.6C401.9,65.6,401.9,65.4,401.9,65.1z M394.4,43.9c0.4,0.5,0.8,0.9,1.1,1.3c-0.3-0.2-0.6-0.4-1-0.6
	C394.5,44.3,394.4,44.1,394.4,43.9z M385.6,42.4c-2.5-2-4.4-3.9-5.7-5.7c6.8,5,12.4,8.7,14.8,10.4c0,0,0,0,0.1,0.1
	c0.2,0.8,0.3,1.5,0.4,2.2c-0.4-0.1-0.8-0.2-1.2-0.3c-1-0.3-2-0.6-3.1-1C389.4,46.3,387.7,44.3,385.6,42.4z M381.5,44.4
	c0.1,0.1,0.3,0.2,0.4,0.3c-1-0.4-2.2-0.9-3.4-1.4C379.2,43.5,380.3,43.8,381.5,44.4z M358.5,36.6c4.4,2.1,8.6,4,12.3,5.7
	c-3.1-1.1-6.5-2.3-10.1-3.6C359.9,38,359.2,37.3,358.5,36.6z M360.7,40.8c3.2,3,6.4,5.6,9.2,7.9c-1.5-0.4-3.3-1-5.1-1.5
	c-1-1.2-2-2.4-3.2-3.7c-1.3-1.4-2.8-2.7-4.5-4C358.3,39.9,359.5,40.3,360.7,40.8z M299.4,19.8c6.5,0.1,13.2,1.5,19.9,3.8
	c-8.2-1.5-17.3-2.2-27.2-1.8c-2.5,0.1-5.1,0.3-7.7,0.6c-1-0.1-1.9-0.2-2.9-0.3C285.3,20.9,291.8,19.4,299.4,19.8z"/>
</svg>
