<svg xmlns="http://www.w3.org/2000/svg" viewBox="0 0 664.9 291.67"><defs><style>.cls-1{stroke:#fff;}.cls-1,.cls-2{stroke-miterlimit:10;}.cls-2{fill:#5593ff;stroke:#000;stroke-width:0.75px;}</style></defs><title>logo_new</title><g id="レイヤー_2" data-name="レイヤー 2"><g id="レイヤー_1-2" data-name="レイヤー 1"><path class="cls-1" d="M615.26,228.2c41,8-134.79-61.21-291.11-44.35S6.93,296.15,48.4,291c32-4,165-82,281-96C457,179.57,586.64,222.66,615.26,228.2Z"/><path d="M165.58,219.24c-2.1-.78-4.14-5.78-3.93-8.63.84-11.15,12.15-27.31,35.17-72.36a1.22,1.22,0,0,0-1.21-1.77C165,140,132.5,143.89,106,147.19a1.19,1.19,0,0,0-.9.6C91,172.41,76,198.5,61.12,236.16,60,239,57.05,248.9,53.79,259.67c-3.21,10.6-6.37,22.37-8.65,28.56-1,2.87-1.39,2.16-1.78,2.2s-1,.11-1.52-2.34c-1.24-5.87-.56-17,.47-26.71A104.63,104.63,0,0,1,45.61,245c1.94-10.26,18.6-53.27,38.56-93A1.22,1.22,0,0,0,83,150.15c-9.13,1-16.62,2-21.68,2.54-3.12.33-4.64-1.6-4.85-3.67a5.45,5.45,0,0,1,4.34-6.21l29-3.06a1.2,1.2,0,0,0,.94-.64c1.22-2.26,2.46-4.35,3.67-6.65C113.73,98.32,131.49,72,147.79,52.69a1.22,1.22,0,0,0-1.11-2C117.17,55.08,83.9,60,57.1,68.11,27.27,77,5.71,89.48,8,111.21c.63,6,5.21,12,12.18,15.72,5,2.62,11,2.51,11.37,5.61.19,1.81-1.23,3.27-3.57,3.52-10.67,1.12-26.09-8-27.7-23.25-3.1-29.5,20.6-46.64,53.91-57.48,31.14-10,72.18-12.84,105.16-16a1.26,1.26,0,0,0,.75-.36C178.24,20.47,194,11.06,207.67,9.61c8.58-.9,17.55,1.82,18.53,11.13S214.17,36.4,194,41.67c-5.52,1.35-11.54,2.75-18.09,4a1.23,1.23,0,0,0-.69.39C155,68.8,131,101.79,114.75,131.1c-.94,1.56-1.74,3.1-2.6,4.65a1.22,1.22,0,0,0,1.17,1.81c26.89-2.58,58.41-5.64,87.36-8.19a1.18,1.18,0,0,0,1-.65C229,75.92,270.38,2.49,293.44.06c4.69-.49,6.81,2.16,7.05,4.49.14,1.29,0,2.87-4.41,8.05-24.76,30.14-51.57,72.13-74.82,112.94a1.22,1.22,0,0,0,1.2,1.81l10.64-1.12c2.86-.3,4.87,1.32,5,2.87.14,1.3-1,2.73-4.15,3.06L216.92,134a1.2,1.2,0,0,0-.93.62c-19.14,34-31.81,54.08-41.2,76.67C171.47,219.7,167.78,220.07,165.58,219.24ZM187,33.51a1.23,1.23,0,0,0,1.07,2.08c1.31-.24,2.6-.51,3.81-.77,17.26-3.39,27.6-7.62,26.86-14.6-.3-2.85-4.05-3.5-9-3C205,17.74,196.82,23.91,187,33.51Z"/><path d="M256,156.84c0-19.52,18.83-45.79,39.49-68.17A10.65,10.65,0,0,1,303.58,85c4.19,0,7.85,2.6,7.85,6a7.57,7.57,0,0,1-2.1,4.43C293.9,113.13,273,137.06,273,160.22c0,5.46,1.83,8.59,7.06,8.59,13.08,0,29.56-13.27,47.34-39.55a3.28,3.28,0,0,1,2.61-1.82,2.68,2.68,0,0,1,2.62,2.86c0,3.9-28.51,46.57-56.75,46.57C263.57,176.87,256,170.11,256,156.84Z"/><path d="M336.87,44.46c4.71,0,6.54,2.61,6.54,5.47,0,7.54-12.55,21.07-22,21.07-4.71,0-6.28-2.86-6.28-5.72C315.16,58,326.67,44.46,336.87,44.46Z"/><path d="M395.38,178.87c-12.3,0-21.45-7-21.45-21.07,0-16.59,13.36-37.34,24.06-52.38a1.22,1.22,0,0,0-1.75-1.66c-9.87,7.7-19.5,17.64-28.59,27.76-20.66,23.42-37.39,47.35-47.59,47.35-6,0-9.94-3.38-9.94-10.67,0-13,19.87-44,40.8-67.9a13.33,13.33,0,0,1,10.2-4.69c4.18,0,7.32,1.83,7.32,5.21,0,1.56-.52,3.12-2.36,5.2-21.7,24.2-34,45.53-34,51.52,0,1.3.52,1.82,1.3,1.82,2.88,0,14.91-16.13,30.08-33.31,15.69-18,36.35-38.5,51-38.5,6,0,10.19,2.6,10.19,6.24a6.18,6.18,0,0,1-1.3,3.39c-9.42,12.48-32.43,40.84-32.43,64,0,6,2.09,10.15,8.37,10.15,14.9,0,29.81-13.79,47.6-40.07a3.28,3.28,0,0,1,2.61-1.82,2.68,2.68,0,0,1,2.62,2.86C452.13,136.2,423.62,178.87,395.38,178.87Z"/><path d="M506.52,158.29a1.21,1.21,0,0,0-2.13-.8c-12,13.71-25.39,24-37.88,24-15.95,0-24.85-11.18-24.85-27.84,0-31.48,35-67.9,68.78-67.9,14.17,0,21,4.7,26.82,10.75a1.23,1.23,0,0,0,1.79,0c6-6.48,11.62-10.73,15.85-10.73,2.88,0,4.19,2.08,4.19,5.46,0,10.64-18,31.89-32.84,47.75a1.42,1.42,0,0,0-.2.28,43.08,43.08,0,0,0-5.15,20.92c0,8.33,3.93,11.71,8.9,11.71,11.76,0,29.29-14.57,46.81-40.59a3.28,3.28,0,0,1,2.61-1.82,2.68,2.68,0,0,1,2.62,2.86c0,5.2-29.81,46.57-56.75,46.57-9.68,0-18.57-6.5-18.57-20.55ZM471,174.19c11.74,0,26.61-15.8,39.92-33.18a1.35,1.35,0,0,0,.15-.26,169.85,169.85,0,0,1,19.44-33.7,1.23,1.23,0,0,0,.19-1.11c-2.72-8.08-8.72-15.27-19.95-15.27-24.84,0-50.73,37.47-50.73,64.27C460,168.47,463.11,174.19,471,174.19Z"/><path class="cls-2" d="M591.17,212.46c-3.45-8.62-2.59-9.51-2.07-10.43-.71,5.14,4.78,12.81,9,13.06a5.08,5.08,0,0,1-.77-3c2.74,4.29,7.38,5.57,11.94,6.18a70.89,70.89,0,0,1,9.17,2c.07-3.22-2.82-8.18-2.77-8.2a9.92,9.92,0,0,1,3.49,5.56c.64,2.83,11.42,3.44,13.37,2.22-2.64-1-3.28-4.08-3.28-4.08A13.81,13.81,0,0,0,632.9,219c1.77.92,9.34.79,12.37-.42-2.42-.6-5.23-4.56-5.06-6.93,2.28,5.92,5.52,7.5,11.35,5.09,1.57-.64,4.82-2.26,4.81-2.26a4.64,4.64,0,0,0-1.41-2.72,6.43,6.43,0,0,1,2.58,2.1,36.17,36.17,0,0,0,5.26-3.74c2.52-2.21,1.54-4.58,1.5-4.56-2.09.65-4.07,1.18-6.11,1.69,0,0,4.78-1.74,5.61-2.55-2.24-4.6-2.64-4.29-4.92-5.95-.7-.63-5.23-2.27-5.79-1.5s-5,4.41-5.92,3.29c2,.15,5.35-4.12,6.86-4.57-3.15-2.53-13.31-3.2-14.53-3.82-1.25-.47-4.17,1.42-4.18,1.41a3.15,3.15,0,0,1,2.75-1.77c-1.85-.67-10.78-4.35-16.31-2.44.49-1.22,3-2,3-2-2.21-1.56-5.75,2-7.25,3.14a9.11,9.11,0,0,1-5.1,1.56,12.65,12.65,0,0,0,4.25-2.06c1.48-1.09,4.41-3.43,5.51-3.44-.7-.4-4.11-3.67-7-3.57-1.28.09-4.41,3-4.43,1.92.65.18,3.74-2.74,3.7-2.75-1.55-1.29-3.75-1-6.28.61-4.76,3.32-7.2,2.65-7.35,2.16,2.59,1.23,9.27-4.46,10.48-4.64-.72-2-3.38-1.76-6.55-1.65s-6.79,0-7.92.15c3.11-1.26,9.22-1.41,9.91-1.11-1.5-2.73-4.79-3.84-8.64-5.42-.25-.13-.53-.27-.85-.41l-.92-.33q-.59-.25-1.17-.54c-4.89-2.17-9.54-4.46-9.53-4.41a4.33,4.33,0,0,0-1.21-1,12.79,12.79,0,0,1-1.4-1.75c-.08-.1-.14-.21-.21-.31a19.85,19.85,0,0,0,8.68,5.07,28.76,28.76,0,0,1,5.33,1.41c.28.12.54.23.77.35a5.3,5.3,0,0,1,.82.7,1.07,1.07,0,0,0-.25-.4,4.37,4.37,0,0,1,.91.65c0-.21-.55-.68-1.5-1.19a7.26,7.26,0,0,0-1-.61,31,31,0,0,0-5.33-2,17,17,0,0,1-5.39-3,16.27,16.27,0,0,0,1.9.66,2.67,2.67,0,0,1,.89.87,1.68,1.68,0,0,0-.61-.79c.42.1.84.19,1.27.26a18.89,18.89,0,0,1,4.44,1,5.7,5.7,0,0,1,1.91,1.11,3.47,3.47,0,0,0-1.73-1.23,17.37,17.37,0,0,0-4.45-1.11,15.41,15.41,0,0,1-2.34-.6,8.89,8.89,0,0,0-1.11-.42c-.35-.15-.68-.3-1-.46-.45-.4-.83-.78-1.16-1.13.25.07.51.14.78.19a5.83,5.83,0,0,1,1.91.52,2,2,0,0,1,.77.63,1.39,1.39,0,0,0-.69-.69,5.47,5.47,0,0,0-1.91-.57,6.47,6.47,0,0,1-1-.27l0,0c.43,0,.88,0,1.35,0a14.85,14.85,0,0,0,1.61,0,11.94,11.94,0,0,0,1.46.54,15,15,0,0,1,3.63,1.36,4.44,4.44,0,0,1,1.49,1.23,2.9,2.9,0,0,0-1.33-1.32,13.55,13.55,0,0,0-3.63-1.45,10,10,0,0,1-1.13-.4l.36,0a1.83,1.83,0,0,0,1-.34,3.11,3.11,0,0,1-1.06.29l-.39,0a14.76,14.76,0,0,1-2.57-1.42,10.1,10.1,0,0,0,1.89.22,7.73,7.73,0,0,1,2.56.28,3.55,3.55,0,0,1,1.2.61,2.4,2.4,0,0,0-1.11-.7,7.72,7.72,0,0,0-2.58-.34,10.32,10.32,0,0,1-2.31-.31c-.25-.18-.48-.36-.69-.53l.24-.08a9.05,9.05,0,0,0,1.47,0,6,6,0,0,1,2,0,2.35,2.35,0,0,1,1,.4,1.62,1.62,0,0,0-.91-.47,5.53,5.53,0,0,0-2,0,9.6,9.6,0,0,1-1.19,0,13,13,0,0,1,1.37-.37,11.9,11.9,0,0,0,2.36-.67c.58-.25.83-.49.84-.57a2.89,2.89,0,0,1-1,.54,13.12,13.12,0,0,1-2.36.64c-.54.12-1,.26-1.5.41l-.66-.07a9.88,9.88,0,0,1-.81-.75,7.74,7.74,0,0,1-.81-1,.51.51,0,0,0,0-.11l-.12,0-.1-.17a69.45,69.45,0,0,1,.85-7.94c1-5.56-1.3-5.46-2-.88a85.43,85.43,0,0,0-.7,9.35,9.86,9.86,0,0,0-1.56-.77,5,5,0,0,1-1.48-.73,1.9,1.9,0,0,1-.56-.65,1.36,1.36,0,0,0,.49.68,4.35,4.35,0,0,0,1.48.76,9.86,9.86,0,0,1,1.63.83v.14l-.21.34a9.58,9.58,0,0,0-2.22,0,4.74,4.74,0,0,1-1.64.08,1.7,1.7,0,0,1-.74-.29,1.05,1.05,0,0,0,.68.35,4.43,4.43,0,0,0,1.65,0,8.44,8.44,0,0,1,2.2,0c-.11.17-.23.34-.37.53a3.82,3.82,0,0,1-.68,0,3.2,3.2,0,0,0-1.39.18,1.38,1.38,0,0,0-.66.48,1.79,1.79,0,0,1,.7-.42,3.24,3.24,0,0,1,1.36-.14,5.49,5.49,0,0,0,.58,0l-.08.1c-.25.19-.66.48-1.18.8l-.11,0a5.33,5.33,0,0,1-1.68.19,1.86,1.86,0,0,1-.82-.23,1.28,1.28,0,0,0,.78.3,5.08,5.08,0,0,0,1.62-.15,13.37,13.37,0,0,1-2.43,1.14,6.13,6.13,0,0,0-2.33,1.15,2.51,2.51,0,0,0-.84,1.21,3.39,3.39,0,0,1,.94-1.14,6.41,6.41,0,0,1,2.32-1.08,15.15,15.15,0,0,0,2.82-1.36l.24,0c-.53.59-1.45,1.59-2.63,2.73a1,1,0,0,1-.18,0,.22.22,0,0,0,.14,0,35.59,35.59,0,0,1-3.72,3.13,11.9,11.9,0,0,0-3.74,3.7,5.94,5.94,0,0,0-.91,3A7.74,7.74,0,0,1,568,170.3a12.68,12.68,0,0,1,3.76-3.57,40.21,40.21,0,0,0,4.07-3.45l.06,0a5.43,5.43,0,0,0,1.4-.94,8.39,8.39,0,0,1,1.21-.8l-.25.46-.44.73a2.15,2.15,0,0,0-.33.35,1.63,1.63,0,0,0-.3.66l-.66,1a36.33,36.33,0,0,1-4,3,10.63,10.63,0,0,0-3.86,3.41,5.66,5.66,0,0,0-1,2.9,7.34,7.34,0,0,1,1.25-2.8,11.32,11.32,0,0,1,3.86-3.28,34.53,34.53,0,0,0,3.14-2.32c-.47.71-1,1.48-1.57,2.29-.35.23-.71.46-1.08.67a9.05,9.05,0,0,0-3.53,2.86,5.3,5.3,0,0,0-1.08,2.68,6.72,6.72,0,0,1,1.25-2.56,9.53,9.53,0,0,1,3.53-2.73l.45-.27c-.74,1-1.53,2.1-2.37,3.16A15,15,0,0,0,568,178a7.71,7.71,0,0,0-.08,4.2,9.91,9.91,0,0,1,.36-4.2,15.69,15.69,0,0,1,3.51-6.05c1-1.32,2-2.64,2.88-3.88l.62-.44c-.22.39-.45.79-.7,1.19a16.67,16.67,0,0,0-2.46,3.82,16.84,16.84,0,0,0-1.12,1.8,9.94,9.94,0,0,0-2,2.95,6.23,6.23,0,0,0-.54,3.18,8.15,8.15,0,0,1,.77-3.12,9.11,9.11,0,0,1,1.34-2.07,11.63,11.63,0,0,0-.92,3,9.19,9.19,0,0,0,.07,3.81,14.18,14.18,0,0,0-.36,2.46,10.57,10.57,0,0,0,.9,5.27,13.14,13.14,0,0,1-.57-5.28c0-.41.09-.82.16-1.24a30.87,30.87,0,0,0,.67,6.18,14.92,14.92,0,0,0,.1,1.9,12.84,12.84,0,0,0,1.89,5.69,14.33,14.33,0,0,1-1.72-5.8c0-.28,0-.57,0-.85a31.87,31.87,0,0,0,5.64,11.88c1.09-1.27.59-6.81,1.58-7.63C576.1,201.89,587.36,211.2,591.17,212.46Zm-12-48.05.23-.21c-.09.26-.18.54-.29.82s-.33.57-.53.88l-.31.15c.33-.63.6-1.13.79-1.44Zm3,.61-.06-.13.08.12Zm-.72-4.31h0l.05.07h0Zm-2.09.57v.05h0Zm-.33.57,0,0a.05.05,0,0,1,0,0Zm0,.1.09.21c-.19.2-.46.48-.81.82l.31-.54c.08-.12.14-.24.22-.36Zm.12.75,0,.06-.06,0Zm4,2.44c-.16-.17-.29-.32-.39-.44s-.17-.23-.26-.35c.17.21.4.48.69.8Zm-.93-3a.91.91,0,0,0-.11-.16c.2.11.43.21.68.32l.05.06h-.3Zm-.14-.36c0-.07,0-.14.06-.19l0,0,.38.42C582.5,161.91,582.35,161.82,582.21,161.74Zm-.28-.58h0l-.08,0-.19-.13,0-.09,0,0Zm.17-.9.35.13-.22.09A1.59,1.59,0,0,1,582.1,160.26Zm0-.25.1-.12.48.08.29.23-.21.08C582.47,160.18,582.24,160.09,582.08,160Zm-.27-.73-.28-.13c0-.06-.06-.13-.08-.19l.4.34Zm-2.67.82a3,3,0,0,1-.13.35h-.38l.45-.43Zm-.11,2.79.11.07c-.17.42-.36.86-.58,1.35l-.21.44c-.5.47-1.12,1-1.82,1.6.51-.9,1-1.7,1.32-2.36C578.31,163.57,578.71,163.2,579,162.89ZM591,167.7a44.76,44.76,0,0,1,4.78,1.64,29.89,29.89,0,0,0-4-1.05,18.16,18.16,0,0,1-8.52-5.16,11.5,11.5,0,0,0,1.36.71A18.44,18.44,0,0,0,591,167.7Zm-8.16-5.28h.25l.49.5Zm3.68-.06c-.46,0-1,0-1.55,0s-.91,0-1.34,0a10.91,10.91,0,0,1-.83-1c-.18-.25-.32-.47-.47-.69l.32-.14q.46.17,1.11.33A16.23,16.23,0,0,0,586.48,162.36Zm-3.19-1.9-.4-.13.16-.06Zm.08-.4-.08,0,0,0Zm-1.08-.31,0-.05.1.08Zm-4.43.78.28-.18-.15.17Zm-.59,1.68a6.07,6.07,0,0,1-1.31.93c1.22-1.18,2.13-2.16,2.56-2.56v0H579a2.34,2.34,0,0,1-.09.24l-.3.57A8.77,8.77,0,0,0,577.27,162.21Zm.26.88a.46.46,0,0,0,.07-.07l-.39.63A2,2,0,0,1,577.53,163.09Zm-2.31,4.27c.56-.8,1.07-1.55,1.53-2.23-.32.58-.67,1.2-1,1.87Zm.89-.29c.7-.54,1.32-1.07,1.86-1.54-.14.28-.29.61-.47.95l-.83.5a9.08,9.08,0,0,0-.94.75Zm-6.18,11.36a12.36,12.36,0,0,1,1.41-3.78,25.84,25.84,0,0,0-1.27,5.31c-.07.49-.11,1-.15,1.53,0,.19-.1.37-.14.56A10.25,10.25,0,0,1,569.93,178.43Z"/></g></g></svg>